HIERARCHY
ROOT SpineBase
{
  OFFSET 0.000000 0.000000 0.000000
  CHANNELS 6 Xposition Yposition Zposition Zrotation Xrotation Yrotation
  JOINT SpineMid
  {
    OFFSET 0.000000 30.723538 0.000000
    CHANNELS 3 Zrotation Xrotation Yrotation
    JOINT SpineShoulder
    {
      OFFSET -0.046704 22.788029 -0.686846
      CHANNELS 3 Zrotation Xrotation Yrotation
      JOINT Neck
      {
        OFFSET -0.048366 7.525510 -0.530908
        CHANNELS 3 Zrotation Xrotation Yrotation
        JOINT Head
        {
          OFFSET -7.086007 10.852614 1.371852
          CHANNELS 3 Zrotation Xrotation Yrotation
          End Site
          {
            OFFSET 0 0 0
          }
        }
      }
      JOINT ShoulderLeft
      {
        OFFSET -9.529182 -0.648722 12.663488
        CHANNELS 3 Zrotation Xrotation Yrotation
        JOINT ElbowLeft
        {
          OFFSET -1.887972 -28.453474 -4.112053
          CHANNELS 3 Zrotation Xrotation Yrotation
          JOINT WristLeft
          {
            OFFSET -1.322056 -27.101075 -8.457033
            CHANNELS 3 Zrotation Xrotation Yrotation
            JOINT HandLeft
            {
              OFFSET 4.504060 -6.534517 1.543406
              CHANNELS 3 Zrotation Xrotation Yrotation
              JOINT HandTipLeft
              {
                OFFSET -0.693094 -1.061429 1.113569
                CHANNELS 3 Zrotation Xrotation Yrotation
                End Site
                {
                  OFFSET 0 0 0
                }
              }
              JOINT ThumbLeft
              {
                OFFSET 0.586918 1.486110 -2.722516
                CHANNELS 3 Zrotation Xrotation Yrotation
                End Site
                {
                  OFFSET 0 0 0
                }
              }
            }
          }
        }
      }
      JOINT ShoulderRight
      {
        OFFSET 5.586085 -4.527618 -14.127163
        CHANNELS 3 Zrotation Xrotation Yrotation
        JOINT ElbowRight
        {
          OFFSET -3.748831 -25.078271 -5.174275
          CHANNELS 3 Zrotation Xrotation Yrotation
          JOINT WristRight
          {
            OFFSET -10.498074 -17.012617 5.524899
            CHANNELS 3 Zrotation Xrotation Yrotation
            JOINT HandRight
            {
              OFFSET -1.595549 -3.216992 4.109107
              CHANNELS 3 Zrotation Xrotation Yrotation
              JOINT HandTipRight
              {
                OFFSET -4.462206 -4.105011 2.470415
                CHANNELS 3 Zrotation Xrotation Yrotation
                End Site
                {
                  OFFSET 0 0 0
                }
              }
              JOINT ThumbRight
              {
                OFFSET 5.461837 -3.101678 -0.269101
                CHANNELS 3 Zrotation Xrotation Yrotation
                End Site
                {
                  OFFSET 0 0 0
                }
              }
            }
          }
        }
      }
    }
  }
  JOINT HipLeft
  {
    OFFSET -3.563685 -0.340273 3.009827
    CHANNELS 3 Zrotation Xrotation Yrotation
    JOINT KneeLeft
    {
      OFFSET 4.043534 -32.065129 5.869205
      CHANNELS 3 Zrotation Xrotation Yrotation
      JOINT AnkleLeft
      {
        OFFSET 2.049324 -30.596794 5.365730
        CHANNELS 3 Zrotation Xrotation Yrotation
        JOINT FootLeft
        {
          OFFSET -6.225592 -5.751474 -2.335688
          CHANNELS 3 Zrotation Xrotation Yrotation
          End Site
          {
            OFFSET 0 0 0
          }
        }
      }
    }
  }
  JOINT HipRight
  {
    OFFSET 2.865348 1.615186 -9.564594
    CHANNELS 3 Zrotation Xrotation Yrotation
    JOINT KneeRight
    {
      OFFSET 9.365216 -27.619556 -2.659810
      CHANNELS 3 Zrotation Xrotation Yrotation
      JOINT AnkleRight
      {
        OFFSET 8.041619 -33.869275 -2.589036
        CHANNELS 3 Zrotation Xrotation Yrotation
        JOINT FootRight
        {
          OFFSET -2.954606 -5.953985 -7.423100
          CHANNELS 3 Zrotation Xrotation Yrotation
          End Site
          {
            OFFSET 0 0 0
          }
        }
      }
    }
  }
}
MOTION
Frames: 14
Frame Time: 0.033333
33.925909 69.218327 337.760890 -0.000000 0.000000 62.920309 -0.000000 -0.000000 -62.920309 -0.000000 0.000000 0.000000 -0.000000 0.000000 0.000000 0.000000 0.000000 0.000000 -0.000000 0.000000 0.000000 -0.000000 0.000000 0.000000 -0.000000 0.000000 0.000000 -0.000000 0.000000 0.000000 0.000000 0.000000 0.000000 0.000000 0.000000 0.000000 -0.000000 0.000000 0.000000 -0.000000 0.000000 0.000000 -0.000000 0.000000 0.000000 -0.000000 0.000000 0.000000 0.000000 0.000000 0.000000 0.000000 0.000000 0.000000 -0.000000 -0.000000 -62.920309 -0.000000 0.000000 0.000000 -0.000000 0.000000 0.000000 0.000000 0.000000 0.000000 -0.000000 -0.000000 -62.920309 -0.000000 0.000000 0.000000 -0.000000 0.000000 0.000000 0.000000 0.000000 0.000000
33.932551 69.211913 337.768125 -0.019178 -0.066839 62.875524 0.068231 0.013405 -62.875543 -0.000000 0.000000 0.000000 -0.000000 0.000000 0.000000 0.000000 0.000000 0.000000 0.005096 -1.978001 0.130938 0.063845 2.901254 -0.197889 -7.969556 18.875634 14.447305 42.187060 26.066168 -33.863996 0.000000 0.000000 0.000000 0.000000 0.000000 0.000000 -0.000000 0.000000 0.000000 -0.000000 0.000000 0.000000 -2.216479 3.171041 -4.455892 3.459302 -2.741518 5.068414 0.000000 0.000000 0.000000 0.000000 0.000000 0.000000 0.068231 0.013405 -62.875543 -0.000000 0.000000 0.000000 -0.000000 0.000000 0.000000 0.000000 0.000000 0.000000 0.068231 0.013405 -62.875543 -0.000000 0.000000 0.000000 -0.000000 0.000000 0.000000 0.000000 0.000000 0.000000
33.939083 69.205782 337.767971 -0.034090 -0.126165 62.850041 0.127820 0.027238 -62.850109 -0.000000 0.000000 0.000000 -0.000000 0.000000 0.000000 0.000000 0.000000 0.000000 0.014631 -3.630912 0.240455 0.132491 5.448856 -0.377152 -29.129798 38.535124 41.770237 63.411940 9.036792 -33.239915 0.000000 0.000000 0.000000 0.000000 0.000000 0.000000 -0.000000 0.000000 0.000000 -0.000000 0.000000 0.000000 -3.794164 5.812119 -7.911618 6.598127 -4.580385 9.393567 0.000000 0.000000 0.000000 0.000000 0.000000 0.000000 0.127820 0.027238 -62.850109 -0.000000 0.000000 0.000000 -0.625582 0.657684 -0.450550 0.000000 0.000000 0.000000 0.127820 0.027238 -62.850109 -0.000000 0.000000 0.000000 -0.000000 0.000000 0.000000 0.000000 0.000000 0.000000
33.945505 69.199932 337.760427 -0.044743 -0.177993 62.844048 0.178794 0.041427 -62.844182 -0.000000 0.000000 0.000000 0.445893 -0.670774 -0.490841 0.000000 0.000000 0.000000 0.026709 -4.952082 0.328140 0.199257 7.587491 -0.532443 -55.030560 44.641444 71.375775 73.689165 -4.799109 -21.382367 0.000000 0.000000 0.000000 0.000000 0.000000 0.000000 -0.000000 0.000000 0.000000 -0.000000 0.000000 0.000000 -4.888897 7.908274 -10.517104 9.265615 -5.737439 12.930315 0.000000 0.000000 0.000000 0.000000 0.000000 0.000000 0.178794 0.041427 -62.844182 -0.000000 0.000000 0.000000 -0.807005 0.858904 -0.589649 0.000000 0.000000 0.000000 0.178794 0.041427 -62.844182 -0.000000 0.000000 0.000000 -0.000000 0.000000 0.000000 0.000000 0.000000 0.000000
33.951818 69.194365 337.745494 -0.051141 -0.222333 62.857624 0.221179 0.055920 -62.857831 -0.000000 0.000000 0.000000 0.551625 -0.795805 -0.584185 0.000000 0.000000 0.000000 0.039781 -5.938187 0.393642 0.256611 9.258638 -0.657198 -70.559090 43.253051 88.612025 80.134431 -11.089522 -12.525500 0.000000 0.000000 0.000000 0.000000 0.000000 0.000000 -0.000000 0.000000 0.000000 -0.000000 0.000000 0.000000 -5.613544 9.474646 -12.385730 11.333201 -6.433429 15.630042 0.000000 0.000000 0.000000 0.000000 0.000000 0.000000 0.221179 0.055920 -62.857831 -0.000000 0.000000 0.000000 -0.902732 0.975250 -0.673300 0.000000 0.000000 0.000000 0.221179 0.055920 -62.857831 -0.000000 0.000000 0.000000 -0.000000 0.000000 0.000000 0.000000 0.000000 0.000000
33.958021 69.189079 337.723172 -0.053288 -0.259196 62.890743 0.255004 0.070678 -62.891020 -0.000000 0.000000 0.000000 0.635912 -0.870548 -0.642255 0.000000 0.000000 0.000000 0.052671 -6.587937 0.436674 0.297006 10.406312 -0.744512 -78.332466 41.064063 97.081747 84.043385 -13.731744 -6.972603 0.000000 0.000000 0.000000 0.000000 0.000000 0.000000 -0.000000 0.000000 0.000000 -0.000000 0.000000 0.000000 -6.039394 10.524613 -13.583792 12.699672 -6.852511 17.436212 0.000000 0.000000 0.000000 0.000000 0.000000 0.000000 0.255004 0.070678 -62.891020 -0.000000 0.000000 0.000000 -0.913246 1.006592 -0.702125 0.000000 0.000000 0.000000 0.255004 0.070678 -62.891020 -0.000000 0.000000 0.000000 -0.000000 0.000000 0.000000 0.000000 0.000000 0.000000
33.972044 69.177130 337.689386 -0.050722 -0.302546 62.948693 0.292516 0.092421 -62.949063 -0.000000 0.000000 0.000000 0.710504 -0.998750 -0.733581 0.000000 0.000000 0.000000 0.071017 -6.666926 0.440467 0.285778 10.562466 -0.753018 -84.142283 38.957141 103.897744 86.995604 -16.434750 -3.198319 0.000000 0.000000 0.000000 0.000000 0.000000 0.000000 -0.000000 0.000000 0.000000 -0.000000 0.000000 0.000000 -5.967436 10.892225 -13.736191 11.100741 -7.473881 16.194046 0.000000 0.000000 0.000000 0.000000 0.000000 0.000000 0.292516 0.092421 -62.949063 -0.000000 0.000000 0.000000 -1.279528 0.255254 0.243038 0.000000 0.000000 0.000000 0.292516 0.092421 -62.949063 -0.000000 0.000000 0.000000 -0.000000 0.000000 0.000000 0.000000 0.000000 0.000000
33.985753 69.167165 337.641160 -0.057268 -0.332701 63.018501 0.322471 0.099912 -63.018949 -0.000000 0.000000 0.000000 0.789325 -1.007315 -0.748019 0.000000 0.000000 0.000000 0.102135 -6.015170 0.393104 0.206488 9.427702 -0.660239 -87.219710 38.059460 108.676518 88.399264 -17.282415 0.203900 0.000000 0.000000 0.000000 0.000000 0.000000 0.000000 0.791416 -0.315097 -0.114196 -0.792055 0.313489 0.118539 -6.040620 10.114979 -13.319729 12.341968 -6.702222 17.029069 0.000000 0.000000 0.000000 0.000000 0.000000 0.000000 0.322471 0.099912 -63.018949 -0.000000 0.000000 0.000000 -0.942201 0.088860 0.284561 0.000000 0.000000 0.000000 0.322471 0.099912 -63.018949 -0.000000 0.000000 0.000000 -0.000000 0.000000 0.000000 0.000000 0.000000 0.000000
34.001028 69.166679 337.580419 -0.064907 -0.347119 63.102821 0.338932 0.099147 -63.103311 -0.000000 0.000000 0.000000 0.867947 -0.827840 -0.641385 0.000000 0.000000 0.000000 0.108609 -5.909292 0.385253 0.195982 9.289340 -0.648841 -84.891872 38.455747 103.651478 87.180782 -15.743578 -0.909295 0.000000 0.000000 0.000000 0.000000 0.000000 0.000000 0.836448 -0.311461 -0.123956 -0.837132 0.309617 0.128491 -5.468686 8.862493 -11.821996 10.046386 -6.270795 14.279155 0.000000 0.000000 0.000000 0.000000 0.000000 0.000000 0.338932 0.099147 -63.103311 -0.000000 0.000000 0.000000 -0.000000 0.000000 0.000000 0.000000 0.000000 0.000000 0.338932 0.099147 -63.103311 -0.000000 0.000000 0.000000 -0.000000 0.000000 0.000000 0.000000 0.000000 0.000000
33.988587 69.173390 337.542178 -0.043489 -0.334959 63.191164 0.318571 0.112256 -63.191603 -0.000000 0.000000 0.000000 0.904091 -0.543212 -0.462575 0.000000 0.000000 0.000000 0.097731 -5.823213 0.380383 0.203691 9.182899 -0.642937 -84.486990 38.243090 101.932392 87.576082 -13.820477 -1.225038 0.000000 0.000000 0.000000 0.000000 0.000000 0.000000 0.900151 -0.246978 -0.147106 -0.900790 0.244635 0.150969 -4.704426 8.547176 -10.680904 8.597881 -5.615400 11.822704 0.000000 0.000000 0.000000 0.000000 0.000000 0.000000 0.318571 0.112256 -63.191603 -0.000000 0.000000 0.000000 -0.000000 0.000000 0.000000 0.000000 0.000000 0.000000 0.318571 0.112256 -63.191603 -0.000000 0.000000 0.000000 -0.000000 0.000000 0.000000 0.000000 0.000000 0.000000
33.968736 69.189139 337.523399 0.012961 -0.304462 63.338161 0.266273 0.148201 -63.338471 -0.000000 0.000000 0.000000 -0.000000 0.000000 0.000000 0.000000 0.000000 0.000000 0.081442 -5.760147 0.377614 0.217693 9.104609 -0.640155 -82.743829 39.092480 100.349102 86.388595 -13.244602 -1.162353 0.000000 0.000000 0.000000 0.000000 0.000000 0.000000 0.969296 -0.118521 -0.181543 -0.969668 0.115433 0.183523 -4.159066 6.439375 -8.731975 8.189817 -3.050042 9.213513 0.000000 0.000000 0.000000 0.000000 0.000000 0.000000 -0.422334 0.655546 -63.522124 0.761128 0.390186 0.185891 -0.530012 0.988467 -0.842975 0.000000 0.000000 0.000000 0.266273 0.148201 -63.338471 -0.000000 0.000000 0.000000 -0.000000 0.000000 0.000000 0.000000 0.000000 0.000000
33.908666 69.206230 337.526761 0.085226 -0.240489 63.440410 0.177004 0.183761 -63.440515 -0.000000 0.000000 0.000000 -0.000000 0.000000 0.000000 0.000000 0.000000 0.000000 0.076521 -5.721715 0.375461 0.221706 9.049057 -0.637357 -82.208359 40.250530 102.545240 84.744437 -18.061210 -5.659497 0.000000 0.000000 0.000000 0.000000 0.000000 0.000000 0.928110 -0.135004 -0.170470 -0.928510 0.132225 0.172635 -3.958819 4.043517 -7.115137 8.487930 -0.260928 7.247656 0.000000 0.000000 0.000000 0.000000 0.000000 0.000000 -0.549299 0.797805 -63.641644 0.872646 0.378183 0.204470 -0.000000 0.000000 0.000000 0.000000 0.000000 0.000000 0.177004 0.183761 -63.440515 -0.000000 0.000000 0.000000 -0.000000 0.000000 0.000000 0.000000 0.000000 0.000000
33.796202 69.215211 337.599634 0.191709 -0.158299 63.475926 0.056025 0.242224 -63.475779 -0.000000 0.000000 0.000000 -0.000000 0.000000 0.000000 0.000000 0.000000 0.000000 0.080412 -5.720084 0.374980 0.218697 9.028054 -0.635983 -80.421547 41.269487 101.454792 83.580285 -16.977998 -4.696947 0.000000 0.000000 0.000000 0.000000 0.000000 0.000000 1.274736 0.106292 -0.280505 -1.274202 -0.112505 0.278071 -4.588948 3.061320 -7.355582 9.739205 2.286009 6.332119 0.000000 0.000000 0.000000 0.000000 0.000000 0.000000 -0.696196 1.014306 -63.696991 1.871893 0.703164 0.392167 0.840928 -1.673954 0.593240 0.000000 0.000000 0.000000 0.056025 0.242224 -63.475779 -0.000000 0.000000 0.000000 -0.000000 0.000000 0.000000 0.000000 0.000000 0.000000
33.634746 69.220189 337.756453 0.305865 -0.149028 63.387795 -0.003774 0.340218 -63.387386 -0.000000 0.000000 0.000000 0.971310 0.306288 0.074170 0.000000 0.000000 0.000000 0.085829 -5.679191 0.371675 0.213675 8.965096 -0.631427 -78.994917 42.221321 101.036437 82.674485 -16.989516 -6.352667 0.000000 0.000000 0.000000 0.000000 0.000000 0.000000 2.213908 1.098867 -0.642923 -2.201862 -1.122818 0.600111 -3.965212 5.097268 -7.715025 9.329453 0.569203 6.615089 0.000000 0.000000 0.000000 0.000000 0.000000 0.000000 -0.746072 1.297037 -63.624080 2.403561 0.873422 0.488965 1.573673 -3.053108 1.361303 0.000000 0.000000 0.000000 -0.003774 0.340218 -63.387386 -0.000000 0.000000 0.000000 -0.000000 0.000000 0.000000 0.000000 0.000000 0.000000
